NotoSansWarangCiti-Regular.ufo
<glyph name="quotesingle" format="2">
	<advance width="225"/>
	<unicode hex="0027"/>
	<outline>
		<contour>
			<point x="160" y="714" type="line"/>
			<point x="65" y="714" type="line"/>
			<point x="85" y="456" type="line"/>
			<point x="140" y="456" type="line"/>
		</contour>
	</outline>
</glyph>
<glyph name="YU_wara" format="2">
	<advance width="604"/>
	<unicode hex="118A3"/>
	<note>
		uni118A3
  </note>
	<outline>
		<contour>
			<point x="518" y="0" type="line"/>
			<point x="518" y="80" type="line"/>
			<point x="159" y="80" type="line"/>
			<point x="159" y="710" type="line"/>
			<point x="71" y="710" type="line"/>
			<point x="71" y="0" type="line"/>
		</contour>
	</outline>
</glyph>
<glyph name="UU_wara" format="2">
	<advance width="624"/>
	<unicode hex="118A7"/>
	<note>
		uni118A7
  </note>
	<outline>
		<contour>
			<point x="160" y="0" type="line"/>
			<point x="160" y="443" type="line"/>
			<point x="387" y="443" type="line"/>
			<point x="387" y="188" type="line"/>
			<point x="605" y="188" type="line"/>
			<point x="605" y="268" type="line"/>
			<point x="475" y="268" type="line"/>
			<point x="475" y="523" type="line"/>
			<point x="160" y="523" type="line"/>
			<point x="160" y="710" type="line"/>
			<point x="72" y="710" type="line"/>
			<point x="72" y="0" type="line"/>
		</contour>
	</outline>
</glyph>
<glyph name="E_wara" format="2">
	<advance width="688"/>
	<unicode hex="118A8"/>
	<note>
		uni118A8
  </note>
	<outline>
		<contour>
			<point x="129" y="630" type="line"/>
			<point x="544" y="630" type="line"/>
			<point x="340" y="90" type="line"/>
			<point x="334" y="90" type="line"/>
		</contour>
		<contour>
			<point x="278" y="0" type="line"/>
			<point x="397" y="0" type="line"/>
			<point x="633" y="630" type="line"/>
			<point x="633" y="710" type="line"/>
			<point x="40" y="710" type="line"/>
			<point x="40" y="630" type="line"/>
		</contour>
	</outline>
</glyph>
<glyph name="GA_wara" format="2">
	<advance width="660"/>
	<unicode hex="118AB"/>
	<note>
		uni118AB
  </note>
	<outline>
		<contour>
			<point x="67" y="0" type="line"/>
			<point x="155" y="0" type="line"/>
			<point x="155" y="553" type="line"/>
			<point x="502" y="620" type="line"/>
			<point x="502" y="0" type="line"/>
			<point x="590" y="0" type="line"/>
			<point x="590" y="710" type="line"/>
			<point x="517" y="710" type="line"/>
			<point x="67" y="623" type="line"/>
		</contour>
	</outline>
</glyph>
<glyph name="KO_wara" format="2">
	<advance width="639"/>
	<unicode hex="118AC"/>
	<note>
		uni118AC
  </note>
	<outline>
		<contour>
			<point x="429" y="307" type="line"/>
			<point x="429" y="80" type="line"/>
			<point x="40" y="80" type="line"/>
			<point x="40" y="0" type="line"/>
			<point x="517" y="0" type="line"/>
			<point x="517" y="307" type="line"/>
			<point x="613" y="307" type="line"/>
			<point x="613" y="387" type="line"/>
			<point x="517" y="387" type="line"/>
			<point x="517" y="710" type="line"/>
			<point x="53" y="710" type="line"/>
			<point x="53" y="307" type="line"/>
		</contour>
		<contour>
			<point x="429" y="387" type="line"/>
			<point x="141" y="387" type="line"/>
			<point x="141" y="630" type="line"/>
			<point x="429" y="630" type="line"/>
		</contour>
	</outline>
</glyph>
<glyph name="YUJ_wara" format="2">
	<advance width="598"/>
	<unicode hex="118AE"/>
	<note>
		uni118AE
  </note>
	<outline>
		<contour>
			<point x="68" y="0" type="line"/>
			<point x="533" y="0" type="line"/>
			<point x="533" y="80" type="line"/>
			<point x="156" y="80" type="line"/>
			<point x="156" y="337" type="line"/>
			<point x="535" y="337" type="line"/>
			<point x="535" y="417" type="line"/>
			<point x="156" y="417" type="line"/>
			<point x="156" y="630" type="line"/>
			<point x="533" y="630" type="line"/>
			<point x="533" y="710" type="line"/>
			<point x="68" y="710" type="line"/>
		</contour>
	</outline>
</glyph>
<glyph name="ENN_wara" format="2">
	<advance width="727"/>
	<unicode hex="118B0"/>
	<note>
		uni118B0
  </note>
	<outline>
		<contour>
			<point x="569" y="141" type="line" smooth="yes"/>
			<point x="569" y="98"/>
			<point x="541" y="75"/>
			<point x="487" y="75" type="curve" smooth="yes"/>
			<point x="433" y="75"/>
			<point x="405" y="98"/>
			<point x="405" y="141" type="curve" smooth="yes"/>
			<point x="405" y="567" type="line" smooth="yes"/>
			<point x="405" y="663"/>
			<point x="346" y="715"/>
			<point x="236" y="715" type="curve" smooth="yes"/>
			<point x="126" y="715"/>
			<point x="66" y="663"/>
			<point x="66" y="567" type="curve" smooth="yes"/>
			<point x="66" y="0" type="line"/>
			<point x="154" y="0" type="line"/>
			<point x="154" y="569" type="line" smooth="yes"/>
			<point x="154" y="611"/>
			<point x="182" y="635"/>
			<point x="236" y="635" type="curve" smooth="yes"/>
			<point x="290" y="635"/>
			<point x="318" y="611"/>
			<point x="318" y="569" type="curve" smooth="yes"/>
			<point x="318" y="143" type="line" smooth="yes"/>
			<point x="318" y="47"/>
			<point x="377" y="-5"/>
			<point x="487" y="-5" type="curve" smooth="yes"/>
			<point x="597" y="-5"/>
			<point x="657" y="47"/>
			<point x="657" y="143" type="curve" smooth="yes"/>
			<point x="657" y="710" type="line"/>
			<point x="569" y="710" type="line"/>
		</contour>
	</outline>
</glyph>
<glyph name="ODD_wara" format="2">
	<advance width="391"/>
	<unicode hex="118B1"/>
	<note>
		uni118B1
  </note>
	<outline>
		<contour>
			<point x="134" y="447" type="line"/>
			<point x="312" y="494" type="line" smooth="yes"/>
			<point x="353" y="505"/>
			<point x="374" y="532"/>
			<point x="374" y="576" type="curve" smooth="yes"/>
			<point x="374" y="710" type="line"/>
			<point x="305" y="710" type="line"/>
			<point x="280" y="570" type="line"/>
			<point x="46" y="506" type="line"/>
			<point x="46" y="0" type="line"/>
			<point x="134" y="0" type="line"/>
		</contour>
	</outline>
</glyph>
<glyph name="NUNG_wara" format="2">
	<advance width="788"/>
	<unicode hex="118B3"/>
	<anchor x="328.125" y="688.477" name="top"/>
	<note>
		uni118B3
  </note>
	<outline>
		<contour>
			<point x="465" y="710" type="line"/>
			<point x="389" y="710" type="line"/>
			<point x="126" y="514" type="line"/>
			<point x="91" y="559" type="line"/>
			<point x="28" y="510" type="line"/>
			<point x="149" y="346" type="line"/>
			<point x="219" y="395" type="line"/>
			<point x="174" y="452" type="line"/>
			<point x="377" y="601" type="line"/>
			<point x="377" y="0" type="line"/>
			<point x="461" y="0" type="line"/>
			<point x="734" y="154" type="line"/>
			<point x="691" y="229" type="line"/>
			<point x="465" y="99" type="line"/>
		</contour>
	</outline>
</glyph>
<glyph name="DA_wara" format="2">
	<advance width="712"/>
	<unicode hex="118B4"/>
	<note>
		uni118B4
  </note>
	<outline>
		<contour>
			<point x="554" y="521" type="line"/>
			<point x="256" y="521" type="line"/>
			<point x="256" y="441" type="line"/>
			<point x="554" y="441" type="line"/>
			<point x="554" y="190" type="line" smooth="yes"/>
			<point x="554" y="112"/>
			<point x="491" y="70"/>
			<point x="361" y="70" type="curve" smooth="yes"/>
			<point x="232" y="70"/>
			<point x="168" y="111"/>
			<point x="168" y="190" type="curve" smooth="yes"/>
			<point x="168" y="710" type="line"/>
			<point x="80" y="710" type="line"/>
			<point x="80" y="201" type="line" smooth="yes"/>
			<point x="80" y="61"/>
			<point x="171" y="-10"/>
			<point x="361" y="-10" type="curve" smooth="yes"/>
			<point x="551" y="-10"/>
			<point x="642" y="61"/>
			<point x="642" y="201" type="curve" smooth="yes"/>
			<point x="642" y="710" type="line"/>
			<point x="554" y="710" type="line"/>
		</contour>
	</outline>
</glyph>
<glyph name="PU_wara" format="2">
	<advance width="747"/>
	<unicode hex="118B8"/>
	<note>
		uni118B8
  </note>
	<outline>
		<contour>
			<point x="110" y="630" type="line"/>
			<point x="110" y="208" type="line" smooth="yes"/>
			<point x="110" y="68"/>
			<point x="193" y="-5"/>
			<point x="363" y="-5" type="curve" smooth="yes"/>
			<point x="533" y="-5"/>
			<point x="616" y="68"/>
			<point x="616" y="208" type="curve" smooth="yes"/>
			<point x="616" y="630" type="line"/>
			<point x="696" y="630" type="line"/>
			<point x="696" y="710" type="line"/>
			<point x="528" y="710" type="line"/>
			<point x="528" y="208" type="line" smooth="yes"/>
			<point x="528" y="120"/>
			<point x="473" y="75"/>
			<point x="363" y="75" type="curve" smooth="yes"/>
			<point x="253" y="75"/>
			<point x="198" y="120"/>
			<point x="198" y="208" type="curve" smooth="yes"/>
			<point x="198" y="710" type="line"/>
			<point x="33" y="710" type="line"/>
			<point x="33" y="630" type="line"/>
		</contour>
	</outline>
</glyph>
<glyph name="HIYO_wara" format="2">
	<advance width="769"/>
	<unicode hex="118B9"/>
	<note>
		uni118B9
  </note>
	<outline>
		<contour>
			<point x="652" y="588" type="curve" smooth="yes"/>
			<point x="652" y="521" type="line"/>
			<point x="730" y="521" type="line"/>
			<point x="730" y="584" type="line" smooth="yes"/>
			<point x="730" y="658"/>
			<point x="691" y="716"/>
			<point x="613" y="716" type="curve" smooth="yes"/>
			<point x="527" y="716"/>
			<point x="484" y="658"/>
			<point x="484" y="584" type="curve" smooth="yes"/>
			<point x="484" y="240" type="line" smooth="yes"/>
			<point x="484" y="143"/>
			<point x="425" y="75"/>
			<point x="317" y="75" type="curve" smooth="yes"/>
			<point x="178" y="75"/>
			<point x="113" y="161"/>
			<point x="113" y="324" type="curve" smooth="yes"/>
			<point x="113" y="457"/>
			<point x="178" y="559"/>
			<point x="309" y="630" type="curve"/>
			<point x="364" y="630" type="line"/>
			<point x="364" y="710" type="line"/>
			<point x="23" y="710" type="line"/>
			<point x="23" y="630" type="line"/>
			<point x="171" y="630" type="line"/>
			<point x="74" y="552"/>
			<point x="25" y="446"/>
			<point x="25" y="312" type="curve" smooth="yes"/>
			<point x="25" y="101"/>
			<point x="143" y="-5"/>
			<point x="316" y="-5" type="curve" smooth="yes"/>
			<point x="477" y="-5"/>
			<point x="572" y="104"/>
			<point x="572" y="275" type="curve" smooth="yes"/>
			<point x="572" y="588" type="line" smooth="yes"/>
			<point x="572" y="619"/>
			<point x="586" y="636"/>
			<point x="613" y="636" type="curve" smooth="yes"/>
			<point x="639" y="636"/>
			<point x="652" y="619"/>
		</contour>
	</outline>
</glyph>
<glyph name="SII_wara" format="2">
	<advance width="739"/>
	<unicode hex="118BE"/>
	<note>
		uni118BE
  </note>
	<outline>
		<contour>
			<point x="201" y="216" type="line"/>
			<point x="201" y="710" type="line"/>
			<point x="23" y="710" type="line"/>
			<point x="23" y="630" type="line"/>
			<point x="113" y="630" type="line"/>
			<point x="113" y="85" type="line"/>
			<point x="646" y="-4" type="line"/>
			<point x="662" y="75" type="line"/>
			<point x="245" y="144" type="line"/>
			<point x="244" y="148" type="line"/>
			<point x="695" y="539" type="line"/>
			<point x="645" y="602" type="line"/>
			<point x="203" y="213" type="line"/>
		</contour>
	</outline>
</glyph>
<glyph name="VIYO_wara" format="2">
	<advance width="778"/>
	<unicode hex="118BF"/>
	<note>
		uni118BF
  </note>
	<outline>
		<contour>
			<point x="585" y="-10" type="line"/>
			<point x="654" y="44"/>
			<point x="718" y="113"/>
			<point x="718" y="249" type="curve" smooth="yes"/>
			<point x="718" y="398"/>
			<point x="631" y="484"/>
			<point x="490" y="484" type="curve" smooth="yes"/>
			<point x="408" y="484"/>
			<point x="344" y="459"/>
			<point x="293" y="408" type="curve"/>
			<point x="293" y="628" type="line"/>
			<point x="453" y="630" type="line"/>
			<point x="453" y="710" type="line"/>
			<point x="205" y="710" type="line"/>
			<point x="205" y="80" type="line"/>
			<point x="73" y="80" type="line"/>
			<point x="73" y="0" type="line"/>
			<point x="293" y="0" type="line"/>
			<point x="293" y="298" type="line"/>
			<point x="332" y="366"/>
			<point x="393" y="404"/>
			<point x="476" y="404" type="curve" smooth="yes"/>
			<point x="576" y="404"/>
			<point x="630" y="346"/>
			<point x="630" y="242" type="curve" smooth="yes"/>
			<point x="630" y="149"/>
			<point x="586" y="88"/>
			<point x="535" y="53" type="curve"/>
		</contour>
	</outline>
</glyph>
<glyph name="ngaa_wara" format="2">
	<advance width="616"/>
	<unicode hex="118C0"/>
	<note>
		uni118C0
  </note>
	<outline>
		<contour>
			<point x="307" y="67" type="curve" smooth="yes"/>
			<point x="271" y="67"/>
			<point x="249" y="104"/>
			<point x="242" y="167" type="curve" smooth="yes"/>
			<point x="211" y="443" type="line" smooth="yes"/>
			<point x="202" y="522"/>
			<point x="165" y="561"/>
			<point x="99" y="561" type="curve" smooth="yes"/>
			<point x="40" y="561" type="line"/>
			<point x="40" y="489" type="line"/>
			<point x="89" y="489" type="line" smooth="yes"/>
			<point x="114" y="489"/>
			<point x="128" y="469"/>
			<point x="131" y="438" type="curve" smooth="yes"/>
			<point x="160" y="164" type="line" smooth="yes"/>
			<point x="172" y="52"/>
			<point x="220" y="-5"/>
			<point x="306" y="-5" type="curve" smooth="yes"/>
			<point x="380" y="-5"/>
			<point x="430" y="38"/>
			<point x="454" y="125" type="curve" smooth="yes"/>
			<point x="576" y="561" type="line"/>
			<point x="486" y="561" type="line"/>
			<point x="373" y="143" type="line" smooth="yes"/>
			<point x="360" y="96"/>
			<point x="339" y="67"/>
		</contour>
	</outline>
</glyph>
<glyph name="a_wara" format="2">
	<advance width="392"/>
	<unicode hex="118C1"/>
	<note>
		uni118C1
  </note>
	<outline>
		<contour>
			<point x="155" y="143" type="line" smooth="yes"/>
			<point x="155" y="96"/>
			<point x="138" y="72"/>
			<point x="103" y="72" type="curve" smooth="yes"/>
			<point x="50" y="72" type="line"/>
			<point x="50" y="0" type="line"/>
			<point x="105" y="0" type="line" smooth="yes"/>
			<point x="194" y="0"/>
			<point x="243" y="52"/>
			<point x="243" y="157" type="curve" smooth="yes"/>
			<point x="243" y="418" type="line" smooth="yes"/>
			<point x="243" y="465"/>
			<point x="262" y="489"/>
			<point x="301" y="489" type="curve" smooth="yes"/>
			<point x="342" y="489" type="line"/>
			<point x="342" y="561" type="line"/>
			<point x="309" y="561" type="line" smooth="yes"/>
			<point x="209" y="561"/>
			<point x="155" y="511"/>
			<point x="155" y="410" type="curve" smooth="yes"/>
		</contour>
	</outline>
</glyph>
<glyph name="wi_wara" format="2">
	<advance width="478"/>
	<unicode hex="118C2"/>
	<note>
		uni118C2
  </note>
	<outline>
		<contour>
			<point x="315" y="561" type="line" smooth="yes"/>
			<point x="187" y="561"/>
			<point x="123" y="501"/>
			<point x="123" y="381" type="curve" smooth="yes"/>
			<point x="123" y="283" type="line"/>
			<point x="30" y="283" type="line"/>
			<point x="30" y="211" type="line"/>
			<point x="123" y="211" type="line"/>
			<point x="123" y="0" type="line"/>
			<point x="211" y="0" type="line"/>
			<point x="211" y="211" type="line"/>
			<point x="423" y="211" type="line"/>
			<point x="423" y="283" type="line"/>
			<point x="211" y="283" type="line"/>
			<point x="211" y="393" type="line" smooth="yes"/>
			<point x="211" y="450"/>
			<point x="239" y="489"/>
			<point x="300" y="489" type="curve" smooth="yes"/>
			<point x="428" y="489" type="line"/>
			<point x="428" y="561" type="line"/>
		</contour>
	</outline>
</glyph>
<glyph name="yu_wara" format="2">
	<advance width="512"/>
	<unicode hex="118C3"/>
	<note>
		uni118C3
  </note>
	<outline>
		<contour>
			<point x="443" y="100" type="line"/>
			<point x="387" y="78"/>
			<point x="331" y="67"/>
			<point x="274" y="67" type="curve" smooth="yes"/>
			<point x="183" y="67"/>
			<point x="138" y="102"/>
			<point x="138" y="159" type="curve" smooth="yes"/>
			<point x="148" y="561" type="line"/>
			<point x="60" y="561" type="line"/>
			<point x="50" y="149" type="line" smooth="yes"/>
			<point x="50" y="46"/>
			<point x="128" y="-5"/>
			<point x="279" y="-5" type="curve" smooth="yes"/>
			<point x="353" y="-5"/>
			<point x="417" y="6"/>
			<point x="472" y="28" type="curve"/>
		</contour>
	</outline>
</glyph>
<glyph name="ga_wara" format="2">
	<advance width="625"/>
	<unicode hex="118CB"/>
	<note>
		uni118CB
  </note>
	<outline>
		<contour>
			<point x="458" y="482" type="line"/>
			<point x="425" y="531"/>
			<point x="366" y="556"/>
			<point x="281" y="556" type="curve" smooth="yes"/>
			<point x="164" y="556"/>
			<point x="91" y="499"/>
			<point x="91" y="386" type="curve" smooth="yes"/>
			<point x="91" y="115" type="line" smooth="yes"/>
			<point x="91" y="86"/>
			<point x="80" y="72"/>
			<point x="58" y="72" type="curve" smooth="yes"/>
			<point x="40" y="72" type="line"/>
			<point x="40" y="0" type="line"/>
			<point x="73" y="0" type="line" smooth="yes"/>
			<point x="140" y="0"/>
			<point x="179" y="36"/>
			<point x="179" y="109" type="curve" smooth="yes"/>
			<point x="179" y="395" type="line" smooth="yes"/>
			<point x="179" y="452"/>
			<point x="222" y="484"/>
			<point x="296" y="484" type="curve" smooth="yes"/>
			<point x="385" y="484"/>
			<point x="439" y="436"/>
			<point x="439" y="347" type="curve" smooth="yes"/>
			<point x="439" y="0" type="line"/>
			<point x="527" y="0" type="line"/>
			<point x="527" y="388" type="line" smooth="yes"/>
			<point x="527" y="446"/>
			<point x="544" y="489"/>
			<point x="579" y="489" type="curve" smooth="yes"/>
			<point x="585" y="489" type="line"/>
			<point x="585" y="561" type="line"/>
			<point x="570" y="561" type="line" smooth="yes"/>
			<point x="521" y="561"/>
			<point x="480" y="535"/>
			<point x="463" y="482" type="curve"/>
		</contour>
	</outline>
</glyph>
<glyph name="eny_wara" format="2">
	<advance width="770"/>
	<unicode hex="118CD"/>
	<note>
		uni118CD
  </note>
	<outline>
		<contour>
			<point x="524" y="357" type="curve" smooth="yes"/>
			<point x="596" y="357"/>
			<point x="632" y="310"/>
			<point x="632" y="217" type="curve" smooth="yes"/>
			<point x="632" y="118"/>
			<point x="597" y="67"/>
			<point x="520" y="67" type="curve" smooth="yes"/>
			<point x="453" y="67"/>
			<point x="420" y="118"/>
			<point x="420" y="217" type="curve" smooth="yes"/>
			<point x="420" y="310"/>
			<point x="452" y="357"/>
		</contour>
		<contour>
			<point x="434" y="387" type="line"/>
			<point x="474" y="561" type="line"/>
			<point x="382" y="561" type="line"/>
			<point x="348" y="387" type="line"/>
			<point x="343" y="387" type="line"/>
			<point x="316" y="413"/>
			<point x="279" y="429"/>
			<point x="233" y="429" type="curve" smooth="yes"/>
			<point x="137" y="429"/>
			<point x="50" y="356"/>
			<point x="50" y="217" type="curve" smooth="yes"/>
			<point x="50" y="69"/>
			<point x="120" y="-5"/>
			<point x="242" y="-5" type="curve" smooth="yes"/>
			<point x="307" y="-5"/>
			<point x="352" y="18"/>
			<point x="377" y="63" type="curve"/>
			<point x="381" y="63" type="line"/>
			<point x="410" y="18"/>
			<point x="459" y="-5"/>
			<point x="528" y="-5" type="curve" smooth="yes"/>
			<point x="654" y="-5"/>
			<point x="720" y="69"/>
			<point x="720" y="217" type="curve" smooth="yes"/>
			<point x="720" y="354"/>
			<point x="647" y="429"/>
			<point x="543" y="429" type="curve" smooth="yes"/>
			<point x="494" y="429"/>
			<point x="461" y="411"/>
			<point x="439" y="387" type="curve"/>
		</contour>
		<contour>
			<point x="246" y="357" type="curve" smooth="yes"/>
			<point x="316" y="357"/>
			<point x="351" y="310"/>
			<point x="351" y="217" type="curve" smooth="yes"/>
			<point x="351" y="118"/>
			<point x="316" y="67"/>
			<point x="247" y="67" type="curve" smooth="yes"/>
			<point x="175" y="67"/>
			<point x="139" y="118"/>
			<point x="139" y="217" type="curve" smooth="yes"/>
			<point x="139" y="310"/>
			<point x="175" y="357"/>
		</contour>
	</outline>
</glyph>
<glyph name="tte_wara" format="2">
	<advance width="534"/>
	<unicode hex="118D2"/>
	<note>
		uni118D2
  </note>
	<outline>
		<contour>
			<point x="271" y="450" type="line" smooth="yes"/>
			<point x="158" y="450"/>
			<point x="50" y="366"/>
			<point x="50" y="221" type="curve" smooth="yes"/>
			<point x="50" y="70"/>
			<point x="155" y="-5"/>
			<point x="298" y="-5" type="curve" smooth="yes"/>
			<point x="375" y="-5"/>
			<point x="440" y="17"/>
			<point x="494" y="62" type="curve"/>
			<point x="446" y="116" type="line"/>
			<point x="403" y="84"/>
			<point x="356" y="67"/>
			<point x="299" y="67" type="curve" smooth="yes"/>
			<point x="194" y="67"/>
			<point x="138" y="122"/>
			<point x="138" y="225" type="curve" smooth="yes"/>
			<point x="138" y="327"/>
			<point x="189" y="378"/>
			<point x="291" y="378" type="curve" smooth="yes"/>
			<point x="376" y="378" type="line"/>
			<point x="376" y="561" type="line"/>
			<point x="288" y="561" type="line"/>
			<point x="288" y="450" type="line"/>
		</contour>
	</outline>
</glyph>
<glyph name="da_wara" format="2">
	<advance width="868"/>
	<unicode hex="118D4"/>
	<note>
		uni118D4
  </note>
	<outline>
		<contour>
			<point x="359" y="480" type="curve" smooth="yes"/>
			<point x="477" y="246" type="line" smooth="yes"/>
			<point x="517" y="166"/>
			<point x="577" y="128"/>
			<point x="646" y="128" type="curve" smooth="yes"/>
			<point x="754" y="128"/>
			<point x="831" y="228"/>
			<point x="831" y="357" type="curve" smooth="yes"/>
			<point x="831" y="480"/>
			<point x="760" y="563"/>
			<point x="662" y="563" type="curve" smooth="yes"/>
			<point x="582" y="563"/>
			<point x="516" y="519"/>
			<point x="489" y="398" type="curve" smooth="yes"/>
			<point x="444" y="199" type="line" smooth="yes"/>
			<point x="428" y="129"/>
			<point x="396" y="67"/>
			<point x="341" y="67" type="curve" smooth="yes"/>
			<point x="305" y="67"/>
			<point x="272" y="92"/>
			<point x="250" y="152" type="curve" smooth="yes"/>
			<point x="139" y="461" type="line" smooth="yes"/>
			<point x="122" y="507"/>
			<point x="91" y="533"/>
			<point x="40" y="536" type="curve"/>
			<point x="24" y="480" type="line"/>
			<point x="45" y="480"/>
			<point x="58" y="465"/>
			<point x="69" y="434" type="curve" smooth="yes"/>
			<point x="169" y="142" type="line" smooth="yes"/>
			<point x="199" y="55"/>
			<point x="252" y="-5"/>
			<point x="341" y="-5" type="curve" smooth="yes"/>
			<point x="458" y="-5"/>
			<point x="510" y="116"/>
			<point x="532" y="232" type="curve" smooth="yes"/>
			<point x="555" y="351" type="line" smooth="yes"/>
			<point x="574" y="451"/>
			<point x="610" y="491"/>
			<point x="657" y="491" type="curve" smooth="yes"/>
			<point x="714" y="491"/>
			<point x="743" y="426"/>
			<point x="743" y="357" type="curve" smooth="yes"/>
			<point x="743" y="280"/>
			<point x="708" y="200"/>
			<point x="646" y="200" type="curve" smooth="yes"/>
			<point x="610" y="200"/>
			<point x="559" y="228"/>
			<point x="511" y="326" type="curve" smooth="yes"/>
			<point x="416" y="521" type="line" smooth="yes"/>
			<point x="400" y="554"/>
			<point x="369" y="566"/>
			<point x="331" y="566" type="curve"/>
			<point x="315" y="510" type="line"/>
			<point x="335" y="505"/>
			<point x="350" y="497"/>
		</contour>
	</outline>
</glyph>
<glyph name="am_wara" format="2">
	<advance width="558"/>
	<unicode hex="118D6"/>
	<note>
		uni118D6
  </note>
	<outline>
		<contour>
			<point x="333" y="192" type="line"/>
			<point x="238" y="237"/>
			<point x="168" y="286"/>
			<point x="122" y="341" type="curve"/>
			<point x="181" y="404"/>
			<point x="250" y="447"/>
			<point x="333" y="472" type="curve"/>
		</contour>
		<contour>
			<point x="332" y="112" type="curve"/>
			<point x="326" y="87"/>
			<point x="303" y="72"/>
			<point x="262" y="72" type="curve" smooth="yes"/>
			<point x="40" y="72" type="line"/>
			<point x="40" y="0" type="line"/>
			<point x="268" y="0" type="line" smooth="yes"/>
			<point x="335" y="0"/>
			<point x="393" y="25"/>
			<point x="415" y="74" type="curve"/>
			<point x="438" y="55"/>
			<point x="454" y="30"/>
			<point x="462" y="1" type="curve"/>
			<point x="528" y="24" type="line"/>
			<point x="507" y="87"/>
			<point x="469" y="129"/>
			<point x="421" y="156" type="curve"/>
			<point x="421" y="561" type="line"/>
			<point x="339" y="561" type="line"/>
			<point x="202" y="511"/>
			<point x="116" y="449"/>
			<point x="53" y="375" type="curve"/>
			<point x="53" y="303" type="line"/>
			<point x="120" y="227"/>
			<point x="203" y="163"/>
		</contour>
	</outline>
</glyph>
<glyph name="holo_wara" format="2">
	<advance width="618"/>
	<unicode hex="118DA"/>
	<note>
		uni118DA
  </note>
	<outline>
		<contour>
			<point x="161" y="122" type="line"/>
			<point x="171" y="121"/>
			<point x="181" y="121"/>
			<point x="190" y="121" type="curve" smooth="yes"/>
			<point x="296" y="121"/>
			<point x="378" y="174"/>
			<point x="378" y="279" type="curve" smooth="yes"/>
			<point x="378" y="386"/>
			<point x="298" y="440"/>
			<point x="191" y="440" type="curve" smooth="yes"/>
			<point x="136" y="440"/>
			<point x="88" y="426"/>
			<point x="47" y="397" type="curve"/>
			<point x="77" y="338" type="line"/>
			<point x="113" y="358"/>
			<point x="150" y="368"/>
			<point x="185" y="368" type="curve" smooth="yes"/>
			<point x="248" y="368"/>
			<point x="290" y="340"/>
			<point x="290" y="276" type="curve" smooth="yes"/>
			<point x="290" y="215"/>
			<point x="251" y="180"/>
			<point x="172" y="180" type="curve" smooth="yes"/>
			<point x="153" y="180"/>
			<point x="133" y="182"/>
			<point x="114" y="185" type="curve"/>
			<point x="104" y="212" type="line"/>
			<point x="40" y="192" type="line"/>
			<point x="74" y="61"/>
			<point x="159" y="-5"/>
			<point x="301" y="-5" type="curve" smooth="yes"/>
			<point x="460" y="-5"/>
			<point x="568" y="84"/>
			<point x="568" y="263" type="curve" smooth="yes"/>
			<point x="568" y="449"/>
			<point x="472" y="549"/>
			<point x="293" y="564" type="curve" smooth="yes"/>
			<point x="150" y="576" type="line"/>
			<point x="145" y="502" type="line"/>
			<point x="297" y="489" type="line" smooth="yes"/>
			<point x="419" y="479"/>
			<point x="480" y="401"/>
			<point x="480" y="257" type="curve" smooth="yes"/>
			<point x="480" y="129"/>
			<point x="416" y="67"/>
			<point x="302" y="67" type="curve" smooth="yes"/>
			<point x="228" y="67"/>
			<point x="187" y="93"/>
			<point x="158" y="118" type="curve"/>
		</contour>
	</outline>
</glyph>
<glyph name="horr_wara" format="2">
	<advance width="520"/>
	<unicode hex="118DB"/>
	<note>
		uni118DB
  </note>
	<outline>
		<contour>
			<point x="124" y="329" type="line"/>
			<point x="128" y="402" type="line" smooth="yes"/>
			<point x="131" y="456"/>
			<point x="164" y="489"/>
			<point x="226" y="489" type="curve" smooth="yes"/>
			<point x="389" y="489" type="line"/>
			<point x="389" y="561" type="line"/>
			<point x="238" y="561" type="line" smooth="yes"/>
			<point x="125" y="561"/>
			<point x="58" y="512"/>
			<point x="52" y="415" type="curve" smooth="yes"/>
			<point x="40" y="229" type="line"/>
			<point x="112" y="223" type="line"/>
			<point x="139" y="271"/>
			<point x="188" y="300"/>
			<point x="261" y="300" type="curve" smooth="yes"/>
			<point x="342" y="300"/>
			<point x="382" y="259"/>
			<point x="382" y="186" type="curve" smooth="yes"/>
			<point x="382" y="108"/>
			<point x="326" y="67"/>
			<point x="215" y="67" type="curve" smooth="yes"/>
			<point x="174" y="67"/>
			<point x="126" y="75"/>
			<point x="71" y="92" type="curve"/>
			<point x="56" y="20" type="line"/>
			<point x="111" y="3"/>
			<point x="167" y="-5"/>
			<point x="223" y="-5" type="curve" smooth="yes"/>
			<point x="382" y="-5"/>
			<point x="470" y="79"/>
			<point x="470" y="188" type="curve" smooth="yes"/>
			<point x="470" y="311"/>
			<point x="389" y="372"/>
			<point x="272" y="372" type="curve" smooth="yes"/>
			<point x="214" y="372"/>
			<point x="166" y="357"/>
			<point x="127" y="326" type="curve"/>
		</contour>
	</outline>
</glyph>
<glyph name="har_wara" format="2">
	<advance width="504"/>
	<unicode hex="118DC"/>
	<note>
		uni118DC
  </note>
	<outline>
		<contour>
			<point x="325" y="412" type="curve"/>
			<point x="368" y="444"/>
			<point x="410" y="472"/>
			<point x="454" y="500" type="curve"/>
			<point x="410" y="565" type="line"/>
			<point x="381" y="543"/>
			<point x="330" y="507"/>
			<point x="257" y="457" type="curve"/>
			<point x="202" y="490"/>
			<point x="147" y="526"/>
			<point x="94" y="565" type="curve"/>
			<point x="50" y="500" type="line"/>
			<point x="99" y="469"/>
			<point x="129" y="450"/>
			<point x="188" y="412" type="curve"/>
			<point x="125" y="359"/>
			<point x="84" y="290"/>
			<point x="84" y="203" type="curve" smooth="yes"/>
			<point x="84" y="84"/>
			<point x="147" y="-5"/>
			<point x="256" y="-5" type="curve" smooth="yes"/>
			<point x="365" y="-5"/>
			<point x="428" y="85"/>
			<point x="428" y="204" type="curve" smooth="yes"/>
			<point x="428" y="291"/>
			<point x="388" y="360"/>
		</contour>
		<contour>
			<point x="256" y="375" type="curve"/>
			<point x="312" y="346"/>
			<point x="340" y="289"/>
			<point x="340" y="204" type="curve" smooth="yes"/>
			<point x="340" y="111"/>
			<point x="312" y="67"/>
			<point x="256" y="67" type="curve" smooth="yes"/>
			<point x="200" y="67"/>
			<point x="172" y="111"/>
			<point x="172" y="205" type="curve" smooth="yes"/>
			<point x="172" y="285"/>
			<point x="200" y="342"/>
		</contour>
	</outline>
</glyph>
<glyph name="zero_wara" format="2">
	<advance width="536"/>
	<unicode hex="118E0"/>
	<note>
		uni118E0
  </note>
	<outline>
		<contour>
			<point x="268" y="569" type="curve" smooth="yes"/>
			<point x="358" y="569"/>
			<point x="398" y="474"/>
			<point x="398" y="328" type="curve" smooth="yes"/>
			<point x="398" y="182"/>
			<point x="358" y="67"/>
			<point x="268" y="67" type="curve" smooth="yes"/>
			<point x="178" y="67"/>
			<point x="138" y="182"/>
			<point x="138" y="328" type="curve" smooth="yes"/>
			<point x="138" y="474"/>
			<point x="178" y="569"/>
		</contour>
		<contour>
			<point x="268" y="-5" type="curve" smooth="yes"/>
			<point x="408" y="-5"/>
			<point x="486" y="158"/>
			<point x="486" y="318" type="curve" smooth="yes"/>
			<point x="486" y="488"/>
			<point x="408" y="641"/>
			<point x="268" y="641" type="curve" smooth="yes"/>
			<point x="128" y="641"/>
			<point x="50" y="488"/>
			<point x="50" y="318" type="curve" smooth="yes"/>
			<point x="50" y="158"/>
			<point x="128" y="-5"/>
		</contour>
	</outline>
</glyph>
<glyph name="four_wara" format="2">
	<advance width="576"/>
	<unicode hex="118E4"/>
	<note>
		uni118E4
  </note>
	<outline>
		<contour>
			<point x="330" y="219" type="line"/>
			<point x="330" y="1" type="line"/>
			<point x="418" y="1" type="line"/>
			<point x="418" y="219" type="line"/>
			<point x="536" y="219" type="line"/>
			<point x="536" y="291" type="line"/>
			<point x="418" y="291" type="line"/>
			<point x="418" y="581" type="line" smooth="yes"/>
			<point x="418" y="628"/>
			<point x="393" y="662"/>
			<point x="348" y="662" type="curve" smooth="yes"/>
			<point x="321" y="662"/>
			<point x="295" y="648"/>
			<point x="272" y="621" type="curve" smooth="yes"/>
			<point x="89" y="402" type="line" smooth="yes"/>
			<point x="58" y="365"/>
			<point x="35" y="330"/>
			<point x="35" y="299" type="curve" smooth="yes"/>
			<point x="35" y="254"/>
			<point x="79" y="219"/>
			<point x="145" y="219" type="curve" smooth="yes"/>
		</contour>
		<contour>
			<point x="326" y="565" type="curve" smooth="yes"/>
			<point x="329" y="565"/>
			<point x="330" y="562"/>
			<point x="330" y="557" type="curve" smooth="yes"/>
			<point x="330" y="291" type="line"/>
			<point x="155" y="291" type="line" smooth="yes"/>
			<point x="128" y="291"/>
			<point x="115" y="299"/>
			<point x="115" y="313" type="curve" smooth="yes"/>
			<point x="115" y="325"/>
			<point x="125" y="342"/>
			<point x="144" y="364" type="curve" smooth="yes"/>
			<point x="316" y="558" type="line" smooth="yes"/>
			<point x="320" y="563"/>
			<point x="323" y="565"/>
		</contour>
	</outline>
</glyph>
<glyph name="ten_wara" format="2">
	<advance width="710"/>
	<unicode hex="118EA"/>
	<note>
		uni118EA
  </note>
	<outline>
		<contour>
			<point x="366" y="0" type="curve"/>
			<point x="371" y="0" type="line"/>
			<point x="528" y="40"/>
			<point x="630" y="156"/>
			<point x="678" y="348" type="curve"/>
			<point x="606" y="368" type="line"/>
			<point x="572" y="244"/>
			<point x="507" y="149"/>
			<point x="412" y="88" type="curve"/>
			<point x="412" y="638" type="line"/>
			<point x="324" y="638" type="line"/>
			<point x="324" y="268" type="line"/>
			<point x="263" y="367"/>
			<point x="170" y="417"/>
			<point x="44" y="417" type="curve"/>
			<point x="41" y="392"/>
			<point x="40" y="369"/>
			<point x="40" y="346" type="curve" smooth="yes"/>
			<point x="40" y="141"/>
			<point x="144" y="26"/>
		</contour>
		<contour>
			<point x="116" y="333" type="curve"/>
			<point x="216" y="308"/>
			<point x="288" y="225"/>
			<point x="331" y="88" type="curve"/>
			<point x="188" y="111"/>
			<point x="116" y="195"/>
		</contour>
	</outline>
</glyph>
<glyph name="thirty_wara" format="2">
	<advance width="647"/>
	<unicode hex="118EC"/>
	<note>
		uni118EC
  </note>
	<outline>
		<contour>
			<point x="481" y="329" type="curve"/>
			<point x="536" y="360"/>
			<point x="566" y="415"/>
			<point x="577" y="496" type="curve" smooth="yes"/>
			<point x="597" y="639" type="line"/>
			<point x="509" y="639" type="line"/>
			<point x="489" y="496" type="line" smooth="yes"/>
			<point x="477" y="409"/>
			<point x="423" y="365"/>
			<point x="326" y="365" type="curve" smooth="yes"/>
			<point x="225" y="365"/>
			<point x="169" y="409"/>
			<point x="157" y="496" type="curve" smooth="yes"/>
			<point x="138" y="639" type="line"/>
			<point x="50" y="639" type="line"/>
			<point x="69" y="496" type="line" smooth="yes"/>
			<point x="80" y="415"/>
			<point x="111" y="360"/>
			<point x="167" y="329" type="curve"/>
			<point x="111" y="296"/>
			<point x="80" y="238"/>
			<point x="69" y="153" type="curve" smooth="yes"/>
			<point x="50" y="0" type="line"/>
			<point x="138" y="0" type="line"/>
			<point x="157" y="153" type="line" smooth="yes"/>
			<point x="169" y="246"/>
			<point x="225" y="293"/>
			<point x="326" y="293" type="curve" smooth="yes"/>
			<point x="423" y="293"/>
			<point x="477" y="246"/>
			<point x="489" y="153" type="curve" smooth="yes"/>
			<point x="509" y="0" type="line"/>
			<point x="597" y="0" type="line"/>
			<point x="577" y="153" type="line" smooth="yes"/>
			<point x="566" y="238"/>
			<point x="536" y="297"/>
		</contour>
	</outline>
</glyph>
<glyph name="ninety_wara" format="2">
	<advance width="686"/>
	<unicode hex="118F2"/>
	<note>
		uni118F2
  </note>
	<outline>
		<contour>
			<point x="656" y="474" type="line"/>
			<point x="656" y="522" type="line" smooth="yes"/>
			<point x="656" y="593"/>
			<point x="611" y="644"/>
			<point x="519" y="644" type="curve" smooth="yes"/>
			<point x="439" y="644"/>
			<point x="376" y="603"/>
			<point x="376" y="522" type="curve" smooth="yes"/>
			<point x="376" y="479" type="line"/>
			<point x="337" y="517"/>
			<point x="282" y="549"/>
			<point x="218" y="549" type="curve" smooth="yes"/>
			<point x="128" y="549"/>
			<point x="50" y="486"/>
			<point x="50" y="371" type="curve" smooth="yes"/>
			<point x="50" y="215"/>
			<point x="205" y="94"/>
			<point x="508" y="-2" type="curve"/>
			<point x="508" y="70" type="line"/>
			<point x="252" y="167"/>
			<point x="138" y="260"/>
			<point x="138" y="370" type="curve" smooth="yes"/>
			<point x="138" y="428"/>
			<point x="170" y="477"/>
			<point x="233" y="477" type="curve" smooth="yes"/>
			<point x="299" y="477"/>
			<point x="353" y="423"/>
			<point x="376" y="336" type="curve"/>
			<point x="464" y="336" type="line"/>
			<point x="464" y="522" type="line" smooth="yes"/>
			<point x="464" y="555"/>
			<point x="482" y="572"/>
			<point x="516" y="572" type="curve" smooth="yes"/>
			<point x="550" y="572"/>
			<point x="568" y="555"/>
			<point x="568" y="522" type="curve" smooth="yes"/>
			<point x="568" y="474" type="line"/>
		</contour>
	</outline>
</glyph>
<glyph name="om_wara" format="2">
	<advance width="684"/>
	<unicode hex="118FF"/>
	<note>
		uni118FF
  </note>
	<outline>
		<contour>
			<point x="376" y="509" type="curve" smooth="yes"/>
			<point x="376" y="514"/>
			<point x="375" y="520"/>
			<point x="372" y="527" type="curve" smooth="yes"/>
			<point x="370" y="532"/>
			<point x="369" y="537"/>
			<point x="369" y="542" type="curve" smooth="yes"/>
			<point x="369" y="549"/>
			<point x="371" y="556"/>
			<point x="375" y="564" type="curve" smooth="yes"/>
			<point x="391" y="598"/>
			<point x="398" y="638"/>
			<point x="398" y="684" type="curve" smooth="yes"/>
			<point x="398" y="747"/>
			<point x="385" y="795"/>
			<point x="358" y="830" type="curve"/>
			<point x="331" y="797"/>
			<point x="318" y="748"/>
			<point x="318" y="684" type="curve" smooth="yes"/>
			<point x="318" y="639"/>
			<point x="326" y="599"/>
			<point x="342" y="564" type="curve" smooth="yes"/>
			<point x="347" y="554"/>
			<point x="350" y="546"/>
			<point x="350" y="540" type="curve" smooth="yes"/>
			<point x="350" y="534"/>
			<point x="348" y="524"/>
			<point x="337" y="524" type="curve" smooth="yes"/>
			<point x="333" y="524"/>
			<point x="327" y="526"/>
			<point x="321" y="530" type="curve" smooth="yes"/>
			<point x="290" y="549"/>
			<point x="256" y="559"/>
			<point x="219" y="559" type="curve" smooth="yes"/>
			<point x="104" y="559"/>
			<point x="40" y="487"/>
			<point x="40" y="372" type="curve" smooth="yes"/>
			<point x="40" y="165"/>
			<point x="150" y="9"/>
			<point x="359" y="-74" type="curve"/>
			<point x="545" y="9"/>
			<point x="644" y="163"/>
			<point x="644" y="367" type="curve" smooth="yes"/>
			<point x="644" y="468"/>
			<point x="588" y="534"/>
			<point x="487" y="534" type="curve" smooth="yes"/>
			<point x="426" y="534"/>
			<point x="381" y="501"/>
			<point x="353" y="434" type="curve"/>
			<point x="348" y="434" type="line"/>
			<point x="327" y="450"/>
			<point x="302" y="458"/>
			<point x="274" y="458" type="curve" smooth="yes"/>
			<point x="217" y="458"/>
			<point x="174" y="419"/>
			<point x="174" y="340" type="curve" smooth="yes"/>
			<point x="174" y="214"/>
			<point x="231" y="115"/>
			<point x="344" y="44" type="curve"/>
			<point x="362" y="65" type="line"/>
			<point x="277" y="155"/>
			<point x="235" y="244"/>
			<point x="235" y="333" type="curve" smooth="yes"/>
			<point x="235" y="376"/>
			<point x="253" y="398"/>
			<point x="288" y="398" type="curve" smooth="yes"/>
			<point x="323" y="398"/>
			<point x="344" y="386"/>
			<point x="352" y="363" type="curve"/>
			<point x="332" y="326"/>
			<point x="322" y="290"/>
			<point x="322" y="255" type="curve" smooth="yes"/>
			<point x="322" y="197"/>
			<point x="336" y="154"/>
			<point x="365" y="126" type="curve"/>
			<point x="393" y="155"/>
			<point x="407" y="198"/>
			<point x="407" y="255" type="curve" smooth="yes"/>
			<point x="407" y="290"/>
			<point x="398" y="326"/>
			<point x="381" y="363" type="curve"/>
			<point x="400" y="426"/>
			<point x="430" y="457"/>
			<point x="470" y="457" type="curve" smooth="yes"/>
			<point x="527" y="457"/>
			<point x="556" y="416"/>
			<point x="556" y="335" type="curve" smooth="yes"/>
			<point x="556" y="175"/>
			<point x="490" y="63"/>
			<point x="359" y="-2" type="curve"/>
			<point x="205" y="67"/>
			<point x="128" y="185"/>
			<point x="128" y="352" type="curve" smooth="yes"/>
			<point x="128" y="443"/>
			<point x="160" y="489"/>
			<point x="225" y="489" type="curve" smooth="yes"/>
			<point x="250" y="489"/>
			<point x="271" y="486"/>
			<point x="288" y="481" type="curve" smooth="yes"/>
			<point x="307" y="475"/>
			<point x="323" y="471"/>
			<point x="334" y="471" type="curve" smooth="yes"/>
			<point x="360" y="471"/>
			<point x="376" y="488"/>
		</contour>
	</outline>
</glyph>
<glyph name="AM_wara.sm" format="2">
	<advance width="700"/>
	<anchor x="317" y="688" name="top"/>
	<note>
		uni118B6.sm
  </note>
	<outline>
		<contour>
			<point x="168" y="368" type="line"/>
			<point x="168" y="374" type="line"/>
			<point x="438" y="522" type="line"/>
			<point x="438" y="208" type="line"/>
		</contour>
		<contour>
			<point x="630" y="-1" type="line"/>
			<point x="675" y="68" type="line"/>
			<point x="526" y="156" type="line"/>
			<point x="526" y="631" type="line"/>
			<point x="454" y="631" type="line"/>
			<point x="94" y="422" type="line"/>
			<point x="94" y="317" type="line"/>
			<point x="438" y="112" type="line"/>
			<point x="438" y="80" type="line"/>
			<point x="73" y="80" type="line"/>
			<point x="73" y="0" type="line"/>
			<point x="526" y="0" type="line"/>
			<point x="526" y="61" type="line"/>
		</contour>
	</outline>
</glyph>
<glyph name="ANG_wara.sm" format="2">
	<advance width="656"/>
	<anchor x="332.031" y="688.477" name="top"/>
	<note>
		uni118AA.sm
  </note>
	<outline>
		<contour>
			<point x="194" y="365" type="line"/>
			<point x="248" y="324" type="line"/>
			<point x="280" y="358" type="line"/>
			<point x="297" y="360"/>
			<point x="313" y="361"/>
			<point x="330" y="361" type="curve" smooth="yes"/>
			<point x="435" y="361"/>
			<point x="504" y="324"/>
			<point x="504" y="218" type="curve" smooth="yes"/>
			<point x="504" y="122"/>
			<point x="451" y="75"/>
			<point x="306" y="75" type="curve" smooth="yes"/>
			<point x="221" y="75"/>
			<point x="143" y="88"/>
			<point x="143" y="140" type="curve" smooth="yes"/>
			<point x="143" y="174"/>
			<point x="176" y="194"/>
			<point x="243" y="194" type="curve" smooth="yes"/>
			<point x="350" y="194" type="line"/>
			<point x="350" y="274" type="line"/>
			<point x="243" y="274" type="line" smooth="yes"/>
			<point x="121" y="274"/>
			<point x="55" y="223"/>
			<point x="55" y="132" type="curve" smooth="yes"/>
			<point x="55" y="41"/>
			<point x="146" y="-5"/>
			<point x="307" y="-5" type="curve" smooth="yes"/>
			<point x="505" y="-5"/>
			<point x="592" y="100"/>
			<point x="592" y="220" type="curve" smooth="yes"/>
			<point x="592" y="356"/>
			<point x="505" y="424"/>
			<point x="346" y="424" type="curve" smooth="yes"/>
			<point x="343" y="424"/>
			<point x="340" y="424"/>
			<point x="337" y="423" type="curve"/>
			<point x="470" y="570" type="line"/>
			<point x="470" y="631" type="line"/>
			<point x="102" y="631" type="line"/>
			<point x="102" y="513" type="line"/>
			<point x="182" y="513" type="line"/>
			<point x="182" y="559" type="line"/>
			<point x="369" y="559" type="line"/>
		</contour>
	</outline>
</glyph>
<glyph name="A_wara.sm" format="2">
	<advance width="498"/>
	<anchor x="268" y="688" name="top"/>
	<note>
		uni118A1.sm
  </note>
	<outline>
		<contour>
			<point x="47" y="81" type="line"/>
			<point x="47" y="0" type="line"/>
			<point x="298" y="0" type="line"/>
			<point x="298" y="550" type="line"/>
			<point x="458" y="550" type="line"/>
			<point x="458" y="631" type="line"/>
			<point x="210" y="631" type="line"/>
			<point x="210" y="81" type="line"/>
		</contour>
	</outline>
</glyph>
<glyph name="DA_wara.sm" format="2">
	<advance width="712"/>
	<anchor x="361" y="688" name="top"/>
	<note>
		uni118B4.sm
  </note>
	<outline>
		<contour>
			<point x="554" y="441" type="line"/>
			<point x="256" y="441" type="line"/>
			<point x="256" y="361" type="line"/>
			<point x="554" y="361" type="line"/>
			<point x="554" y="190" type="line" smooth="yes"/>
			<point x="554" y="112"/>
			<point x="491" y="70"/>
			<point x="361" y="70" type="curve" smooth="yes"/>
			<point x="232" y="70"/>
			<point x="168" y="111"/>
			<point x="168" y="190" type="curve" smooth="yes"/>
			<point x="168" y="630" type="line"/>
			<point x="80" y="630" type="line"/>
			<point x="80" y="201" type="line" smooth="yes"/>
			<point x="80" y="61"/>
			<point x="171" y="-10"/>
			<point x="361" y="-10" type="curve" smooth="yes"/>
			<point x="551" y="-10"/>
			<point x="642" y="61"/>
			<point x="642" y="201" type="curve" smooth="yes"/>
			<point x="642" y="630" type="line"/>
			<point x="554" y="630" type="line"/>
		</contour>
	</outline>
</glyph>
<glyph name="ENN_wara.sm" format="2">
	<advance width="727"/>
	<anchor x="367" y="688" name="top"/>
	<note>
		uni118B0.sm
  </note>
	<outline>
		<contour>
			<point x="569" y="141" type="line" smooth="yes"/>
			<point x="569" y="98"/>
			<point x="541" y="75"/>
			<point x="487" y="75" type="curve" smooth="yes"/>
			<point x="433" y="75"/>
			<point x="405" y="98"/>
			<point x="405" y="141" type="curve" smooth="yes"/>
			<point x="405" y="487" type="line" smooth="yes"/>
			<point x="405" y="583"/>
			<point x="346" y="635"/>
			<point x="236" y="635" type="curve" smooth="yes"/>
			<point x="126" y="635"/>
			<point x="66" y="583"/>
			<point x="66" y="487" type="curve" smooth="yes"/>
			<point x="66" y="0" type="line"/>
			<point x="154" y="0" type="line"/>
			<point x="154" y="489" type="line" smooth="yes"/>
			<point x="154" y="531"/>
			<point x="182" y="555"/>
			<point x="236" y="555" type="curve" smooth="yes"/>
			<point x="290" y="555"/>
			<point x="318" y="531"/>
			<point x="318" y="489" type="curve" smooth="yes"/>
			<point x="318" y="143" type="line" smooth="yes"/>
			<point x="318" y="47"/>
			<point x="377" y="-5"/>
			<point x="487" y="-5" type="curve" smooth="yes"/>
			<point x="597" y="-5"/>
			<point x="657" y="47"/>
			<point x="657" y="143" type="curve" smooth="yes"/>
			<point x="657" y="630" type="line"/>
			<point x="569" y="630" type="line"/>
		</contour>
	</outline>
</glyph>
<glyph name="GA_wara.sm" format="2">
	<advance width="660"/>
	<anchor x="336.914" y="688.477" name="top"/>
	<note>
		uni118AB.sm
  </note>
	<outline>
		<contour>
			<point x="67" y="0" type="line"/>
			<point x="155" y="0" type="line"/>
			<point x="155" y="473" type="line"/>
			<point x="502" y="540" type="line"/>
			<point x="502" y="0" type="line"/>
			<point x="590" y="0" type="line"/>
			<point x="590" y="630" type="line"/>
			<point x="517" y="630" type="line"/>
			<point x="67" y="543" type="line"/>
		</contour>
	</outline>
</glyph>
<glyph name="HOLO_wara.sm" format="2">
	<advance width="713"/>
	<anchor x="340" y="688" name="top"/>
	<note>
		uni118BA.sm
  </note>
	<outline>
		<contour>
			<point x="380" y="347" type="line"/>
			<point x="380" y="427" type="line"/>
			<point x="73" y="427" type="line"/>
			<point x="73" y="347" type="line"/>
			<point x="184" y="347" type="line"/>
			<point x="184" y="341" type="line"/>
			<point x="138" y="303"/>
			<point x="112" y="248"/>
			<point x="112" y="188" type="curve" smooth="yes"/>
			<point x="112" y="69"/>
			<point x="220" y="-5"/>
			<point x="368" y="-5" type="curve" smooth="yes"/>
			<point x="553" y="-5"/>
			<point x="653" y="106"/>
			<point x="653" y="289" type="curve" smooth="yes"/>
			<point x="653" y="474"/>
			<point x="539" y="600"/>
			<point x="307" y="625" type="curve" smooth="yes"/>
			<point x="169" y="640" type="line"/>
			<point x="159" y="556" type="line"/>
			<point x="301" y="540" type="line" smooth="yes"/>
			<point x="476" y="520"/>
			<point x="565" y="446"/>
			<point x="565" y="297" type="curve" smooth="yes"/>
			<point x="565" y="156"/>
			<point x="505" y="75"/>
			<point x="370" y="75" type="curve" smooth="yes"/>
			<point x="263" y="75"/>
			<point x="200" y="128"/>
			<point x="200" y="200" type="curve" smooth="yes"/>
			<point x="200" y="290"/>
			<point x="273" y="327"/>
			<point x="320" y="347" type="curve"/>
		</contour>
	</outline>
</glyph>
<glyph name="HORR_wara.sm" format="2">
	<advance width="590"/>
	<anchor x="292.48" y="688.477" name="top"/>
	<note>
		uni118BB.sm
  </note>
	<outline>
		<contour>
			<point x="156" y="386" type="line"/>
			<point x="185" y="550" type="line"/>
			<point x="496" y="550" type="line"/>
			<point x="496" y="630" type="line"/>
			<point x="110" y="630" type="line"/>
			<point x="47" y="271" type="line"/>
			<point x="117" y="256" type="line"/>
			<point x="153" y="311"/>
			<point x="212" y="344"/>
			<point x="298" y="344" type="curve" smooth="yes"/>
			<point x="414" y="344"/>
			<point x="466" y="288"/>
			<point x="466" y="216" type="curve" smooth="yes"/>
			<point x="466" y="136"/>
			<point x="400" y="75"/>
			<point x="280" y="75" type="curve" smooth="yes"/>
			<point x="206" y="75"/>
			<point x="144" y="98"/>
			<point x="83" y="136" type="curve"/>
			<point x="43" y="60" type="line"/>
			<point x="110" y="17"/>
			<point x="192" y="-5"/>
			<point x="277" y="-5" type="curve" smooth="yes"/>
			<point x="445" y="-5"/>
			<point x="554" y="81"/>
			<point x="554" y="219" type="curve" smooth="yes"/>
			<point x="554" y="335"/>
			<point x="474" y="424"/>
			<point x="314" y="424" type="curve" smooth="yes"/>
			<point x="249" y="424"/>
			<point x="198" y="411"/>
			<point x="161" y="386" type="curve"/>
		</contour>
	</outline>
</glyph>
<glyph name="ODD_wara.sm" format="2">
	<advance width="391"/>
	<anchor x="219" y="688" name="top"/>
	<note>
		uni118B1.sm
  </note>
	<outline>
		<contour>
			<point x="134" y="367" type="line"/>
			<point x="312" y="414" type="line" smooth="yes"/>
			<point x="353" y="425"/>
			<point x="374" y="452"/>
			<point x="374" y="496" type="curve" smooth="yes"/>
			<point x="374" y="630" type="line"/>
			<point x="305" y="630" type="line"/>
			<point x="280" y="490" type="line"/>
			<point x="46" y="426" type="line"/>
			<point x="46" y="0" type="line"/>
			<point x="134" y="0" type="line"/>
		</contour>
	</outline>
</glyph>
<glyph name="PU_wara.sm" format="2">
	<advance width="747"/>
	<anchor x="359" y="688" name="top"/>
	<note>
		uni118B8.sm
  </note>
	<outline>
		<contour>
			<point x="110" y="550" type="line"/>
			<point x="110" y="208" type="line" smooth="yes"/>
			<point x="110" y="68"/>
			<point x="193" y="-5"/>
			<point x="363" y="-5" type="curve" smooth="yes"/>
			<point x="533" y="-5"/>
			<point x="616" y="68"/>
			<point x="616" y="208" type="curve" smooth="yes"/>
			<point x="616" y="550" type="line"/>
			<point x="696" y="550" type="line"/>
			<point x="696" y="630" type="line"/>
			<point x="528" y="630" type="line"/>
			<point x="528" y="208" type="line" smooth="yes"/>
			<point x="528" y="120"/>
			<point x="473" y="75"/>
			<point x="363" y="75" type="curve" smooth="yes"/>
			<point x="253" y="75"/>
			<point x="198" y="120"/>
			<point x="198" y="208" type="curve" smooth="yes"/>
			<point x="198" y="630" type="line"/>
			<point x="33" y="630" type="line"/>
			<point x="33" y="550" type="line"/>
		</contour>
	</outline>
</glyph>
<glyph name="SII_wara.sm" format="2">
	<advance width="706"/>
	<anchor x="353" y="688" name="top"/>
	<note>
		uni118BE.sm
  </note>
	<outline>
		<contour>
			<point x="201" y="216" type="line"/>
			<point x="201" y="630" type="line"/>
			<point x="23" y="630" type="line"/>
			<point x="23" y="550" type="line"/>
			<point x="113" y="550" type="line"/>
			<point x="113" y="81" type="line"/>
			<point x="646" y="-4" type="line"/>
			<point x="662" y="75" type="line"/>
			<point x="245" y="144" type="line"/>
			<point x="244" y="148" type="line"/>
			<point x="610" y="465" type="line"/>
			<point x="560" y="528" type="line"/>
			<point x="203" y="213" type="line"/>
		</contour>
	</outline>
</glyph>
<glyph name="SSUU_wara.sm" format="2">
	<advance width="700"/>
	<anchor x="375" y="688" name="top"/>
	<note>
		uni118BD.sm
  </note>
	<outline>
		<contour>
			<point x="142" y="550" type="line"/>
			<point x="142" y="204" type="line" smooth="yes"/>
			<point x="142" y="64"/>
			<point x="226" y="-5"/>
			<point x="386" y="-5" type="curve" smooth="yes"/>
			<point x="546" y="-5"/>
			<point x="630" y="64"/>
			<point x="630" y="204" type="curve" smooth="yes"/>
			<point x="630" y="630" type="line"/>
			<point x="542" y="630" type="line"/>
			<point x="542" y="379" type="line"/>
			<point x="230" y="379" type="line"/>
			<point x="230" y="630" type="line"/>
			<point x="42" y="630" type="line"/>
			<point x="42" y="550" type="line"/>
		</contour>
		<contour>
			<point x="542" y="194" type="line" smooth="yes"/>
			<point x="542" y="114"/>
			<point x="486" y="74"/>
			<point x="386" y="74" type="curve" smooth="yes"/>
			<point x="286" y="74"/>
			<point x="230" y="114"/>
			<point x="230" y="194" type="curve" smooth="yes"/>
			<point x="230" y="299" type="line"/>
			<point x="542" y="299" type="line"/>
		</contour>
	</outline>
</glyph>
<glyph name="TTE_wara.sm" format="2">
	<advance width="671"/>
	<anchor x="327.637" y="688.477" name="top"/>
	<note>
		uni118B2.sm
  </note>
	<outline>
		<contour>
			<point x="163" y="80" type="line"/>
			<point x="42" y="80" type="line"/>
			<point x="42" y="0" type="line"/>
			<point x="616" y="0" type="line"/>
			<point x="616" y="199" type="line"/>
			<point x="528" y="199" type="line"/>
			<point x="528" y="80" type="line"/>
			<point x="251" y="80" type="line"/>
			<point x="251" y="630" type="line"/>
			<point x="163" y="630" type="line"/>
		</contour>
	</outline>
</glyph>
<glyph name="UC_wara.sm" format="2">
	<advance width="643"/>
	<anchor x="330.078" y="688.965" name="top"/>
	<note>
		uni118AF.sm
  </note>
	<outline>
		<contour>
			<point x="485" y="234" type="line"/>
			<point x="485" y="-1" type="line"/>
			<point x="573" y="-1" type="line"/>
			<point x="573" y="630" type="line"/>
			<point x="485" y="630" type="line"/>
			<point x="485" y="314" type="line"/>
			<point x="149" y="314" type="line"/>
			<point x="149" y="550" type="line"/>
			<point x="306" y="550" type="line"/>
			<point x="306" y="630" type="line"/>
			<point x="66" y="630" type="line"/>
			<point x="66" y="234" type="line"/>
		</contour>
	</outline>
</glyph>
<glyph name="UU_wara.sm" format="2">
	<advance width="626"/>
	<anchor x="315" y="688" name="top"/>
	<note>
		uni118A7.sm
  </note>
	<outline>
		<contour>
			<point x="160" y="0" type="line"/>
			<point x="160" y="378" type="line"/>
			<point x="389" y="378" type="line"/>
			<point x="389" y="124" type="line"/>
			<point x="607" y="124" type="line"/>
			<point x="607" y="204" type="line"/>
			<point x="477" y="204" type="line"/>
			<point x="477" y="458" type="line"/>
			<point x="160" y="458" type="line"/>
			<point x="160" y="631" type="line"/>
			<point x="72" y="631" type="line"/>
			<point x="72" y="0" type="line"/>
		</contour>
	</outline>
</glyph>
<glyph name="VIYO_wara.sm" format="2">
	<advance width="778"/>
	<anchor x="377" y="688" name="top"/>
	<note>
		uni118BF.sm
  </note>
	<outline>
		<contour>
			<point x="585" y="-10" type="line"/>
			<point x="664" y="44"/>
			<point x="718" y="103"/>
			<point x="718" y="219" type="curve" smooth="yes"/>
			<point x="718" y="348"/>
			<point x="631" y="424"/>
			<point x="490" y="424" type="curve" smooth="yes"/>
			<point x="408" y="424"/>
			<point x="344" y="399"/>
			<point x="293" y="348" type="curve"/>
			<point x="293" y="548" type="line"/>
			<point x="453" y="550" type="line"/>
			<point x="453" y="630" type="line"/>
			<point x="205" y="630" type="line"/>
			<point x="205" y="80" type="line"/>
			<point x="73" y="80" type="line"/>
			<point x="73" y="0" type="line"/>
			<point x="293" y="0" type="line"/>
			<point x="293" y="238" type="line"/>
			<point x="332" y="306"/>
			<point x="383" y="344"/>
			<point x="476" y="344" type="curve" smooth="yes"/>
			<point x="566" y="344"/>
			<point x="630" y="306"/>
			<point x="630" y="212" type="curve" smooth="yes"/>
			<point x="630" y="129"/>
			<point x="586" y="83"/>
			<point x="535" y="53" type="curve"/>
		</contour>
	</outline>
</glyph>
<glyph name="YU_wara.sm" format="2">
	<advance width="604"/>
	<anchor x="277" y="688" name="top"/>
	<note>
		uni118A3.sm
  </note>
	<outline>
		<contour>
			<point x="518" y="0" type="line"/>
			<point x="518" y="80" type="line"/>
			<point x="159" y="80" type="line"/>
			<point x="159" y="631" type="line"/>
			<point x="71" y="631" type="line"/>
			<point x="71" y="0" type="line"/>
		</contour>
	</outline>
</glyph>
<glyph name="at_wara.sm" format="2">
	<advance width="564"/>
	<anchor x="287" y="547" name="top"/>
	<note>
		uni118D5.sm
  </note>
	<outline>
		<contour>
			<point x="138" y="287" type="curve"/>
			<point x="147" y="388"/>
			<point x="192" y="427"/>
			<point x="307" y="427" type="curve" smooth="yes"/>
			<point x="360" y="427"/>
			<point x="411" y="416"/>
			<point x="458" y="398" type="curve"/>
			<point x="479" y="469" type="line"/>
			<point x="424" y="489"/>
			<point x="368" y="499"/>
			<point x="309" y="499" type="curve" smooth="yes"/>
			<point x="137" y="499"/>
			<point x="50" y="413"/>
			<point x="50" y="245" type="curve" smooth="yes"/>
			<point x="50" y="72"/>
			<point x="122" y="-5"/>
			<point x="292" y="-5" type="curve" smooth="yes"/>
			<point x="431" y="-5"/>
			<point x="514" y="54"/>
			<point x="514" y="173" type="curve" smooth="yes"/>
			<point x="514" y="281"/>
			<point x="434" y="335"/>
			<point x="303" y="335" type="curve" smooth="yes"/>
			<point x="237" y="335"/>
			<point x="182" y="318"/>
		</contour>
		<contour>
			<point x="139" y="197" type="curve"/>
			<point x="176" y="239"/>
			<point x="227" y="263"/>
			<point x="293" y="263" type="curve" smooth="yes"/>
			<point x="382" y="263"/>
			<point x="426" y="231"/>
			<point x="426" y="173" type="curve" smooth="yes"/>
			<point x="426" y="104"/>
			<point x="380" y="67"/>
			<point x="287" y="67" type="curve" smooth="yes"/>
			<point x="225" y="67"/>
			<point x="183" y="86"/>
			<point x="161" y="119" type="curve" smooth="yes"/>
			<point x="149" y="136"/>
			<point x="142" y="162"/>
		</contour>
	</outline>
</glyph>
<glyph name="e_wara.sm" format="2">
	<advance width="558"/>
	<anchor x="282.227" y="547.363" name="top"/>
	<note>
		uni118C8.sm
  </note>
	<outline>
		<contour>
			<point x="50" y="434" type="line"/>
			<point x="136" y="141" type="line" smooth="yes"/>
			<point x="165" y="44"/>
			<point x="212" y="-5"/>
			<point x="279" y="-5" type="curve" smooth="yes"/>
			<point x="346" y="-5"/>
			<point x="393" y="44"/>
			<point x="422" y="141" type="curve" smooth="yes"/>
			<point x="508" y="434" type="line"/>
			<point x="508" y="494" type="line"/>
			<point x="50" y="494" type="line"/>
		</contour>
		<contour>
			<point x="421" y="422" type="line"/>
			<point x="340" y="141" type="line" smooth="yes"/>
			<point x="326" y="94"/>
			<point x="307" y="67"/>
			<point x="280" y="67" type="curve" smooth="yes"/>
			<point x="253" y="67"/>
			<point x="233" y="94"/>
			<point x="219" y="141" type="curve" smooth="yes"/>
			<point x="138" y="422" type="line"/>
		</contour>
	</outline>
</glyph>
<glyph name="eny_wara.sm" format="2">
	<advance width="770"/>
	<anchor x="351" y="547" name="top"/>
	<note>
		uni118CD.sm
  </note>
	<outline>
		<contour>
			<point x="524" y="297" type="curve" smooth="yes"/>
			<point x="596" y="297"/>
			<point x="632" y="250"/>
			<point x="632" y="187" type="curve" smooth="yes"/>
			<point x="632" y="118"/>
			<point x="597" y="67"/>
			<point x="520" y="67" type="curve" smooth="yes"/>
			<point x="453" y="67"/>
			<point x="420" y="118"/>
			<point x="420" y="187" type="curve" smooth="yes"/>
			<point x="420" y="250"/>
			<point x="452" y="297"/>
		</contour>
		<contour>
			<point x="434" y="327" type="line"/>
			<point x="474" y="501" type="line"/>
			<point x="382" y="501" type="line"/>
			<point x="348" y="327" type="line"/>
			<point x="343" y="327" type="line"/>
			<point x="316" y="353"/>
			<point x="279" y="369"/>
			<point x="233" y="369" type="curve" smooth="yes"/>
			<point x="137" y="369"/>
			<point x="50" y="296"/>
			<point x="50" y="187" type="curve" smooth="yes"/>
			<point x="50" y="69"/>
			<point x="120" y="-5"/>
			<point x="242" y="-5" type="curve" smooth="yes"/>
			<point x="307" y="-5"/>
			<point x="352" y="18"/>
			<point x="377" y="63" type="curve"/>
			<point x="381" y="63" type="line"/>
			<point x="410" y="18"/>
			<point x="459" y="-5"/>
			<point x="528" y="-5" type="curve" smooth="yes"/>
			<point x="654" y="-5"/>
			<point x="720" y="69"/>
			<point x="720" y="187" type="curve" smooth="yes"/>
			<point x="720" y="294"/>
			<point x="647" y="369"/>
			<point x="543" y="369" type="curve" smooth="yes"/>
			<point x="494" y="369"/>
			<point x="461" y="351"/>
			<point x="439" y="327" type="curve"/>
		</contour>
		<contour>
			<point x="246" y="297" type="curve" smooth="yes"/>
			<point x="316" y="297"/>
			<point x="351" y="250"/>
			<point x="351" y="187" type="curve" smooth="yes"/>
			<point x="351" y="118"/>
			<point x="316" y="67"/>
			<point x="247" y="67" type="curve" smooth="yes"/>
			<point x="175" y="67"/>
			<point x="139" y="118"/>
			<point x="139" y="187" type="curve" smooth="yes"/>
			<point x="139" y="250"/>
			<point x="175" y="297"/>
		</contour>
	</outline>
</glyph>
<glyph name="horr_wara.sm" format="2">
	<advance width="506"/>
	<anchor x="246" y="547" name="top"/>
	<note>
		uni118DB.sm
  </note>
	<outline>
		<contour>
			<point x="118" y="290" type="line"/>
			<point x="122" y="325" type="line" smooth="yes"/>
			<point x="129" y="386"/>
			<point x="162" y="416"/>
			<point x="220" y="416" type="curve" smooth="yes"/>
			<point x="383" y="416" type="line"/>
			<point x="383" y="494" type="line"/>
			<point x="232" y="494" type="line" smooth="yes"/>
			<point x="120" y="494"/>
			<point x="60" y="442"/>
			<point x="52" y="338" type="curve" smooth="yes"/>
			<point x="40" y="190" type="line"/>
			<point x="106" y="184" type="line"/>
			<point x="133" y="232"/>
			<point x="183" y="256"/>
			<point x="255" y="256" type="curve" smooth="yes"/>
			<point x="336" y="256"/>
			<point x="376" y="226"/>
			<point x="376" y="165" type="curve" smooth="yes"/>
			<point x="376" y="101"/>
			<point x="320" y="69"/>
			<point x="209" y="69" type="curve" smooth="yes"/>
			<point x="170" y="69"/>
			<point x="122" y="77"/>
			<point x="65" y="94" type="curve"/>
			<point x="50" y="20" type="line"/>
			<point x="105" y="3"/>
			<point x="161" y="-5"/>
			<point x="217" y="-5" type="curve" smooth="yes"/>
			<point x="376" y="-5"/>
			<point x="456" y="52"/>
			<point x="456" y="167" type="curve" smooth="yes"/>
			<point x="456" y="278"/>
			<point x="393" y="333"/>
			<point x="266" y="333" type="curve" smooth="yes"/>
			<point x="209" y="333"/>
			<point x="160" y="318"/>
			<point x="121" y="287" type="curve"/>
		</contour>
	</outline>
</glyph>
<glyph name="ko_wara.sm" format="2">
	<advance width="603"/>
	<anchor x="264" y="547" name="top"/>
	<note>
		uni118CC.sm
  </note>
	<outline>
		<contour>
			<point x="406" y="219" type="curve" smooth="yes"/>
			<point x="468" y="252"/>
			<point x="479" y="261"/>
			<point x="502" y="261" type="curve" smooth="yes"/>
			<point x="515" y="261"/>
			<point x="529" y="258"/>
			<point x="548" y="252" type="curve"/>
			<point x="573" y="324" type="line"/>
			<point x="553" y="330"/>
			<point x="534" y="333"/>
			<point x="517" y="333" type="curve" smooth="yes"/>
			<point x="484" y="333"/>
			<point x="469" y="324"/>
			<point x="410" y="295" type="curve" smooth="yes"/>
			<point x="341" y="261"/>
			<point x="309" y="238"/>
			<point x="247" y="238" type="curve" smooth="yes"/>
			<point x="173" y="238"/>
			<point x="128" y="273"/>
			<point x="128" y="332" type="curve" smooth="yes"/>
			<point x="128" y="391"/>
			<point x="174" y="434"/>
			<point x="252" y="434" type="curve" smooth="yes"/>
			<point x="358" y="434"/>
			<point x="396" y="362"/>
			<point x="396" y="266" type="curve" smooth="yes"/>
			<point x="396" y="129"/>
			<point x="349" y="67"/>
			<point x="232" y="67" type="curve" smooth="yes"/>
			<point x="175" y="67"/>
			<point x="124" y="83"/>
			<point x="80" y="112" type="curve"/>
			<point x="47" y="45" type="line"/>
			<point x="99" y="12"/>
			<point x="163" y="-5"/>
			<point x="239" y="-5" type="curve" smooth="yes"/>
			<point x="425" y="-5"/>
			<point x="484" y="111"/>
			<point x="484" y="273" type="curve" smooth="yes"/>
			<point x="484" y="422"/>
			<point x="380" y="506"/>
			<point x="251" y="506" type="curve" smooth="yes"/>
			<point x="126" y="506"/>
			<point x="40" y="435"/>
			<point x="40" y="326" type="curve" smooth="yes"/>
			<point x="40" y="225"/>
			<point x="123" y="166"/>
			<point x="237" y="166" type="curve" smooth="yes"/>
			<point x="308" y="166"/>
			<point x="357" y="192"/>
		</contour>
	</outline>
</glyph>
<glyph name="uu_wara.sm" format="2">
	<advance width="460"/>
	<anchor x="221" y="547" name="top"/>
	<note>
		uni118C7.sm
  </note>
	<outline>
		<contour>
			<point x="63" y="387" type="line"/>
			<point x="111" y="407"/>
			<point x="160" y="425"/>
			<point x="214" y="425" type="curve" smooth="yes"/>
			<point x="292" y="425"/>
			<point x="342" y="387"/>
			<point x="333" y="325" type="curve" smooth="yes"/>
			<point x="284" y="0" type="line"/>
			<point x="369" y="0" type="line"/>
			<point x="417" y="321" type="line" smooth="yes"/>
			<point x="436" y="445"/>
			<point x="360" y="497"/>
			<point x="224" y="497" type="curve" smooth="yes"/>
			<point x="136" y="497"/>
			<point x="82" y="475"/>
			<point x="30" y="448" type="curve"/>
		</contour>
	</outline>
</glyph>
<glyph name="viyo_wara.sm" format="2">
	<advance width="598"/>
	<anchor x="283" y="547" name="top"/>
	<note>
		uni118DF.sm
  </note>
	<outline>
		<contour>
			<point x="206" y="175" type="line"/>
			<point x="233" y="225"/>
			<point x="277" y="251"/>
			<point x="340" y="251" type="curve" smooth="yes"/>
			<point x="420" y="251"/>
			<point x="460" y="219"/>
			<point x="460" y="158" type="curve" smooth="yes"/>
			<point x="460" y="112"/>
			<point x="443" y="74"/>
			<point x="408" y="43" type="curve"/>
			<point x="465" y="-8" type="line"/>
			<point x="516" y="37"/>
			<point x="548" y="92"/>
			<point x="548" y="156" type="curve" smooth="yes"/>
			<point x="548" y="267"/>
			<point x="481" y="323"/>
			<point x="359" y="323" type="curve" smooth="yes"/>
			<point x="295" y="323"/>
			<point x="244" y="306"/>
			<point x="205" y="275" type="curve"/>
			<point x="205" y="335" type="line" smooth="yes"/>
			<point x="205" y="389"/>
			<point x="232" y="422"/>
			<point x="283" y="422" type="curve" smooth="yes"/>
			<point x="397" y="422" type="line"/>
			<point x="397" y="494" type="line"/>
			<point x="292" y="494" type="line" smooth="yes"/>
			<point x="180" y="494"/>
			<point x="118" y="436"/>
			<point x="118" y="321" type="curve" smooth="yes"/>
			<point x="118" y="120" type="line" smooth="yes"/>
			<point x="118" y="91"/>
			<point x="104" y="72"/>
			<point x="77" y="72" type="curve" smooth="yes"/>
			<point x="40" y="72" type="line"/>
			<point x="40" y="0" type="line"/>
			<point x="90" y="0" type="line" smooth="yes"/>
			<point x="163" y="0"/>
			<point x="206" y="46"/>
			<point x="206" y="139" type="curve" smooth="yes"/>
		</contour>
	</outline>
</glyph>
<glyph name="ya_wara.sm" format="2">
	<advance width="596"/>
	<anchor x="303" y="547" name="top"/>
	<note>
		uni118C4.sm
  </note>
	<outline>
		<contour>
			<point x="505" y="315" type="curve"/>
			<point x="532" y="346"/>
			<point x="546" y="385"/>
			<point x="546" y="432" type="curve" smooth="yes"/>
			<point x="546" y="476"/>
			<point x="525" y="498"/>
			<point x="482" y="498" type="curve" smooth="yes"/>
			<point x="436" y="498"/>
			<point x="413" y="466"/>
			<point x="413" y="402" type="curve" smooth="yes"/>
			<point x="413" y="374" type="line"/>
			<point x="388" y="298"/>
			<point x="345" y="253"/>
			<point x="284" y="253" type="curve" smooth="yes"/>
			<point x="226" y="253"/>
			<point x="197" y="286"/>
			<point x="197" y="338" type="curve" smooth="yes"/>
			<point x="197" y="375" type="line" smooth="yes"/>
			<point x="197" y="454"/>
			<point x="158" y="494"/>
			<point x="80" y="494" type="curve" smooth="yes"/>
			<point x="40" y="494" type="line"/>
			<point x="40" y="422" type="line"/>
			<point x="71" y="422" type="line" smooth="yes"/>
			<point x="100" y="422"/>
			<point x="115" y="402"/>
			<point x="115" y="370" type="curve" smooth="yes"/>
			<point x="115" y="324" type="line" smooth="yes"/>
			<point x="115" y="229"/>
			<point x="171" y="181"/>
			<point x="282" y="181" type="curve" smooth="yes"/>
			<point x="350" y="181"/>
			<point x="399" y="208"/>
			<point x="430" y="261" type="curve"/>
			<point x="434" y="261" type="line"/>
			<point x="439" y="229"/>
			<point x="442" y="202"/>
			<point x="442" y="178" type="curve" smooth="yes"/>
			<point x="442" y="108"/>
			<point x="390" y="67"/>
			<point x="286" y="67" type="curve" smooth="yes"/>
			<point x="231" y="67"/>
			<point x="173" y="84"/>
			<point x="113" y="118" type="curve"/>
			<point x="81" y="50" type="line"/>
			<point x="144" y="13"/>
			<point x="214" y="-5"/>
			<point x="293" y="-5" type="curve" smooth="yes"/>
			<point x="444" y="-5"/>
			<point x="520" y="53"/>
			<point x="520" y="170" type="curve" smooth="yes"/>
			<point x="520" y="194"/>
			<point x="518" y="211"/>
		</contour>
	</outline>
</glyph>
